<svg id="Layer_1" viewBox="0 0 512 512" xmlns="http://www.w3.org/2000/svg" data-name="Layer 1"><path d="m499.43 405.285c-12.832 16.867-131.695 79.948-132.894 80.583-.05.026-.101.053-.151.078-26.473 13.209-51.651 18.036-81.632 15.655-8.92-.709-17.973-1.767-27.558-2.887-40.488-4.729-86.379-10.092-144.445 8.776-.718.233-1.448.344-2.165.345-2.951 0-5.694-1.88-6.656-4.839-1.195-3.676.817-7.625 4.494-8.82 60.975-19.815 108.481-14.264 150.396-9.367 9.453 1.104 18.381 2.147 27.042 2.835 27.273 2.167 50.161-2.21 74.199-14.188 49.129-26.028 120.98-67.12 128.228-76.647 6.899-9.07 5.545-16.631 1.978-20.682-3.622-4.113-11.579-6.765-22.075-.705-20.983 12.114-70.777 36.24-106.793 49.452-.817 2.761-1.981 5.458-3.493 8.003-8.514 14.327-30.567 17.827-50.07 17.827-2.623 0-5.197-.063-7.688-.172-22.328-.974-47.186-6.184-59.106-12.388-3.429-1.785-4.763-6.011-2.978-9.44s6.012-4.762 9.441-2.978c8.759 4.559 31.073 9.853 53.253 10.82 23.613 1.031 40.474-3.015 45.113-10.82 3.464-5.829 3.899-13.387 1.059-18.38-2.4-4.219-6.877-6.358-13.307-6.358-45.805 0-77.454-12.708-102.884-22.918-26.643-10.698-45.893-18.427-69.519-7.772-32.533 14.671-45.438 19.135-64.973 25.892-6.558 2.269-13.991 4.84-23.202 8.155-3.639 1.312-7.647-.578-8.957-4.216-1.309-3.637.578-7.647 4.216-8.957 9.293-3.345 16.77-5.931 23.367-8.213 19.855-6.868 31.839-11.013 63.794-25.423 29.062-13.107 52.896-3.539 80.49 7.542 25.578 10.27 54.568 21.91 97.668 21.91 11.498 0 20.545 4.771 25.475 13.436 1.598 2.808 2.667 5.91 3.238 9.147 34.648-13.264 79.405-35.042 98.857-46.272 16.683-9.632 31.9-5.143 39.581 3.576 9.086 10.316 8.56 25.394-1.341 38.411zm-380.424-91.839c-100.698-58.407-117.459-111.391-113.788-145.554 3.168-29.479 21.745-53.173 47.327-60.364 24.275-6.826 49.409 2.47 69.974 25.567 20.564-23.097 45.694-32.393 69.973-25.567 20.505 5.763 36.5 22.136 43.676 43.586 9.795-4.44 23.621-4.129 39.68 4.406.235-3.619 1.8-6.907 4.34-9.323-1.067-1.305-2.097-2.646-3.08-4.03-.84-1.184-1.292-2.6-1.292-4.051v-3.688c-39.578 2.603-50.391-15.321-52.832-21.176-4.091-9.813-1.107-20.925 7.425-27.651 9.036-7.123 25.16-9.871 45.438.891.235-3.62 1.8-6.909 4.34-9.325-1.067-1.305-2.097-2.646-3.08-4.03-.84-1.184-1.292-2.6-1.292-4.051v-3.689c-39.578 2.612-50.391-15.321-52.832-21.176-4.091-9.813-1.107-20.925 7.425-27.651 9.036-7.123 25.16-9.87 45.438.891.336-5.188 3.398-9.703 8.161-11.932 5.053-2.365 10.855-1.611 15.144 1.967 10.905 9.097 24.731 14.106 38.931 14.106s28.026-5.01 38.931-14.106c4.289-3.578 10.093-4.331 15.146-1.966 4.761 2.229 7.823 6.744 8.159 11.931 20.281-10.765 36.4-8.015 45.438-.891 8.533 6.726 11.516 17.838 7.425 27.651-2.277 5.463-11.835 21.432-45.254 21.434-2.401 0-4.923-.083-7.577-.257v3.688c0 1.452-.451 2.867-1.292 4.051-.983 1.385-2.013 2.725-3.08 4.03 2.54 2.417 4.105 5.706 4.34 9.325 20.28-10.765 36.401-8.014 45.438-.891 8.533 6.726 11.516 17.838 7.425 27.651-2.277 5.462-11.836 21.432-45.255 21.434-2.401 0-4.923-.083-7.576-.257v3.688c0 1.452-.451 2.867-1.292 4.051-.983 1.385-2.013 2.726-3.08 4.03 2.54 2.417 4.105 5.706 4.34 9.326 20.28-10.764 36.401-8.014 45.438-.891 8.532 6.726 11.516 17.838 7.424 27.651-2.277 5.463-11.836 21.432-45.254 21.434-2.401 0-4.924-.083-7.577-.257v3.688c0 1.452-.452 2.867-1.292 4.051-.983 1.385-2.013 2.726-3.08 4.031 2.54 2.417 4.105 5.706 4.34 9.325 20.28-10.765 36.401-8.014 45.438-.891 8.532 6.726 11.516 17.838 7.424 27.651-2.277 5.463-11.836 21.432-45.254 21.434-2.401 0-4.924-.083-7.577-.257v3.688c0 1.452-.451 2.867-1.292 4.051-.983 1.385-2.013 2.725-3.08 4.03 2.54 2.417 4.105 5.706 4.34 9.326 20.281-10.765 36.4-8.015 45.438-.891 8.533 6.726 11.516 17.838 7.425 27.651-2.277 5.463-11.835 21.432-45.254 21.434-2.401 0-4.923-.083-7.577-.257v3.688c0 1.452-.451 2.867-1.292 4.051-13.997 19.723-36.791 31.498-60.976 31.498s-46.979-11.775-60.976-31.498c-.84-1.184-1.292-2.6-1.292-4.051v-3.689c-39.578 2.612-50.391-15.321-52.832-21.176-4.091-9.813-1.107-20.925 7.425-27.651 9.036-7.124 25.161-9.871 45.438.891.235-3.62 1.8-6.909 4.34-9.326-1.067-1.305-2.097-2.646-3.08-4.03-.84-1.184-1.292-2.6-1.292-4.051v-3.689c-39.578 2.606-50.391-15.321-52.832-21.176-4.091-9.813-1.107-20.925 7.425-27.65 9.036-7.123 25.16-9.871 45.438.891.235-3.62 1.8-6.909 4.34-9.326-1.067-1.305-2.097-2.646-3.08-4.03-.84-1.184-1.292-2.6-1.292-4.051v-3.691c-18.291 1.189-30.354-2.042-38.187-6.161-8.042 31.981-36.436 72.554-111.599 116.151-1.086.63-2.299.945-3.512.945s-2.426-.315-3.512-.945zm271.174-.963c-2.35-1.193-3.83-3.605-3.83-6.241v-11.698c0-.091-.013-.125-.013-.125-.031-.056-.188-.129-.25-.117 0 0-.035.011-.105.07l-.011-.013c-13.296 11.078-30.219 17.37-47.888 17.37s-34.592-6.292-47.889-17.37l-.011.013c-.07-.059-.104-.07-.104-.07-.062-.014-.219.061-.25.117 0 0-.013.034-.013.125v11.698c0 2.635-1.48 5.047-3.83 6.241-2.351 1.193-5.17.965-7.298-.587-19.167-13.996-33.319-13.168-39.612-8.206-3.653 2.879-4.867 7.197-3.17 11.269 3.218 7.718 17.21 15.468 46.055 11.921 1.985-.244 3.99.375 5.493 1.704 1.502 1.329 2.362 3.238 2.362 5.243v9.085c11.456 14.973 29.338 23.848 48.267 23.848s36.811-8.875 48.267-23.848v-9.085c0-2.005.86-3.915 2.362-5.243 1.503-1.329 3.505-1.948 5.493-1.704 28.846 3.551 42.837-4.203 46.055-11.921 1.698-4.072.483-8.39-3.17-11.269-6.294-4.961-20.446-5.79-39.612 8.206-2.128 1.553-4.95 1.781-7.298.587zm0-69.032c-2.35-1.193-3.83-3.605-3.83-6.241v-11.698c0-.091-.013-.125-.013-.125-.031-.056-.188-.132-.25-.117 0 0-.035.011-.105.07l-.011-.013c-13.296 11.078-30.219 17.37-47.888 17.37s-34.592-6.292-47.889-17.37l-.011.013c-.07-.059-.104-.07-.104-.07-.062-.003-.219.062-.25.117 0 0-.013.034-.013.125v11.698c0 2.635-1.48 5.047-3.83 6.241-2.351 1.193-5.17.965-7.298-.587-19.166-13.996-33.318-13.167-39.612-8.205-3.653 2.879-4.867 7.197-3.17 11.269 3.218 7.718 17.21 15.469 46.055 11.921 1.985-.246 3.99.375 5.493 1.704 1.502 1.329 2.362 3.238 2.362 5.243v9.085c11.457 14.973 29.338 23.848 48.267 23.848s36.811-8.875 48.267-23.848v-9.085c0-2.005.86-3.915 2.362-5.243 1.503-1.329 3.505-1.95 5.493-1.704 28.844 3.55 42.836-4.203 46.055-11.921 1.698-4.071.483-8.39-3.17-11.269-6.292-4.96-20.445-5.79-39.612 8.206-2.128 1.554-4.949 1.781-7.298.587zm-108.219-192.699c1.985-.243 3.99.375 5.493 1.704 1.502 1.329 2.362 3.238 2.362 5.243v9.085c11.456 14.973 29.338 23.848 48.267 23.848s36.811-8.875 48.267-23.848v-9.085c0-2.005.86-3.915 2.362-5.243 1.503-1.329 3.505-1.947 5.493-1.704 28.846 3.549 42.837-4.203 46.055-11.921 1.698-4.072.483-8.39-3.17-11.269-6.294-4.962-20.446-5.79-39.612 8.206-2.128 1.553-4.95 1.781-7.298.587-2.35-1.193-3.83-3.605-3.83-6.241v-11.699c0-.091-.013-.125-.013-.125-.032-.057-.192-.127-.25-.116 0 0-.035.011-.105.07-13.417 11.192-30.427 17.356-47.899 17.356s-34.482-6.164-47.899-17.356c-.07-.059-.105-.07-.105-.07-.055-.009-.218.062-.249.117 0 0-.013.034-.013.125v11.699c0 2.635-1.48 5.047-3.83 6.241-2.351 1.194-5.17.966-7.298-.587-19.167-13.997-33.319-13.169-39.612-8.206-3.653 2.879-4.867 7.197-3.17 11.269 3.218 7.718 17.21 15.468 46.055 11.921zm0 69.032c1.992-.243 3.99.376 5.493 1.704 1.502 1.329 2.362 3.238 2.362 5.243v9.085c11.457 14.973 29.338 23.848 48.267 23.848s36.811-8.875 48.267-23.848v-9.085c0-2.005.86-3.915 2.362-5.243 1.503-1.329 3.501-1.949 5.493-1.704 28.844 3.549 42.836-4.203 46.055-11.921 1.698-4.072.483-8.39-3.17-11.27-6.294-4.961-20.446-5.791-39.612 8.206-2.128 1.554-4.949 1.78-7.298.587-2.35-1.193-3.83-3.605-3.83-6.241v-11.698c0-.091-.013-.125-.013-.125-.031-.056-.188-.127-.25-.116 0 0-.035.011-.105.07l-.011-.013c-13.296 11.078-30.219 17.369-47.888 17.369s-34.592-6.292-47.889-17.37l-.011.013c-.07-.059-.104-.07-.105-.07-.055-.012-.218.061-.249.117 0 0-.013.034-.013.125v11.698c0 2.635-1.48 5.047-3.83 6.241-2.351 1.194-5.17.965-7.298-.587-19.166-13.996-33.318-13.168-39.612-8.205-3.653 2.879-4.867 7.197-3.17 11.269 3.218 7.718 17.21 15.467 46.055 11.921zm-42.466 45.518c.12.859.229 1.722.323 2.591.48 4.468.606 9.261.245 14.343 4.916 4.072 16.536 9.701 41.898 6.58 1.985-.245 3.99.375 5.493 1.704 1.502 1.329 2.362 3.238 2.362 5.243v9.085c11.457 14.973 29.338 23.848 48.267 23.848s36.811-8.875 48.267-23.848v-9.085c0-2.005.86-3.915 2.362-5.243 1.503-1.329 3.505-1.949 5.493-1.704 28.846 3.549 42.837-4.203 46.055-11.921 1.698-4.071.483-8.39-3.17-11.269-6.294-4.96-20.446-5.79-39.612 8.206-2.128 1.553-4.95 1.781-7.298.587-2.35-1.193-3.83-3.605-3.83-6.241v-11.698c0-.091-.013-.125-.013-.125-.031-.057-.188-.13-.25-.117 0 0-.035.011-.105.07l-.011-.013c-13.296 11.078-30.219 17.37-47.888 17.37s-34.592-6.292-47.889-17.37l-.011.013c-.07-.058-.104-.07-.105-.07-.053-.008-.219.062-.25.117 0 0-.013.034-.013.125v11.698c0 2.635-1.48 5.047-3.83 6.241-1.001.508-2.087.759-3.169.759-1.458 0-2.907-.455-4.129-1.347-17.924-13.089-32.19-13.655-39.193-8.53zm-116.977 133.978c37.377-22.078 65.167-44.994 82.63-68.146 15.906-21.088 22.887-41.862 20.75-61.745-2.553-23.758-17.153-42.75-37.195-48.383-20.715-5.822-42.813 4.142-60.634 27.336-1.325 1.725-3.376 2.735-5.551 2.735s-4.226-1.011-5.551-2.735c-14.484-18.852-31.794-28.963-48.89-28.963-3.939 0-7.866.537-11.745 1.627-20.042 5.634-34.642 24.625-37.195 48.383-2.137 19.883 4.845 40.657 20.75 61.745 17.463 23.153 45.252 46.069 82.63 68.146zm14.75-37.591h-29.499c-3.866 0-7-3.134-7-7v-23.052h-23.051c-3.866 0-7-3.134-7-7v-29.499c0-3.866 3.134-7 7-7h23.051v-23.052c0-3.866 3.134-7 7-7h29.499c3.866 0 7 3.134 7 7v23.052h23.052c3.866 0 7 3.134 7 7v29.499c0 3.866-3.134 7-7 7h-23.052v23.052c0 3.866-3.134 7-7 7zm0-44.052h23.052v-15.499h-23.052c-3.866 0-7-3.134-7-7v-23.052h-15.499v23.052c0 3.866-3.134 7-7 7h-23.051v15.499h23.051c3.866 0 7 3.134 7 7v23.052h15.499v-23.052c0-3.866 3.134-7 7-7z"/></svg>